<svg width="60" height="60" viewBox="0 0 60 60" fill="none" xmlns="http://www.w3.org/2000/svg">
<g clip-path="url(#clip0_39_73)">
<path d="M51.0037 8.72271C48.2535 5.94582 44.9779 3.74438 41.3679 2.24681C37.7579 0.749239 33.8858 -0.0144781 29.9775 0.000207844C13.6012 0.000207844 0.255 13.3427 0.24 29.7227C0.24 34.969 1.6125 40.0727 4.20375 44.5915L0 60.0002L15.765 55.8677C20.1243 58.2461 25.0116 59.4905 29.9775 59.4865H29.9925C46.3725 59.4865 59.715 46.144 59.73 29.749C59.7333 25.8417 58.9637 21.9723 57.4654 18.3637C55.9672 14.7551 53.7736 11.4786 51.0037 8.72271ZM29.9775 54.454C25.5494 54.4505 21.2033 53.2591 17.3925 51.004L16.4925 50.464L7.14 52.9165L9.6375 43.7927L9.0525 42.8515C6.57678 38.9152 5.26743 34.3578 5.27625 29.7077C5.27625 16.1102 16.365 5.01771 29.9925 5.01771C33.239 5.01188 36.4546 5.64874 39.4538 6.89155C42.4531 8.13437 45.1766 9.95856 47.4675 12.259C49.7659 14.5508 51.588 17.2747 52.8289 20.2739C54.0697 23.2731 54.7048 26.4882 54.6975 29.734C54.6825 43.3802 43.5938 54.454 29.9775 54.454ZM43.5338 35.9515C42.795 35.5802 39.1462 33.784 38.46 33.529C37.7775 33.2852 37.2788 33.1577 36.7912 33.9002C36.2925 34.639 34.8675 36.3227 34.44 36.8065C34.0125 37.3052 33.57 37.3615 32.8275 36.994C32.0887 36.619 29.6925 35.839 26.8575 33.3002C24.645 31.3315 23.1637 28.894 22.7213 28.1552C22.2938 27.4127 22.68 27.0152 23.0512 26.644C23.3775 26.314 23.79 25.774 24.1612 25.3465C24.5362 24.919 24.66 24.604 24.9037 24.109C25.1475 23.6065 25.0312 23.179 24.8475 22.8077C24.66 22.4365 23.1787 18.7727 22.5525 17.2952C21.9525 15.8365 21.3412 16.039 20.8837 16.0202C20.4562 15.994 19.9575 15.994 19.4587 15.994C19.0822 16.0035 18.7116 16.0908 18.3702 16.2501C18.0289 16.4095 17.7241 16.6376 17.475 16.9202C16.7925 17.6627 14.8837 19.459 14.8837 23.1227C14.8837 26.7865 17.5462 30.3077 17.9212 30.8065C18.2887 31.3052 23.1487 38.8015 30.6075 42.0265C32.37 42.7952 33.7575 43.249 34.8413 43.594C36.6225 44.164 38.2312 44.0777 39.5137 43.894C40.9387 43.6765 43.905 42.094 44.5312 40.3577C45.1463 38.6177 45.1463 37.1327 44.9588 36.8215C44.775 36.5065 44.2762 36.3227 43.5338 35.9515Z" fill="white"/>
</g>
<defs>
<clipPath id="clip0_39_73">
<rect width="60" height="60" fill="white"/>
</clipPath>
</defs>
</svg>
